<svg xmlns="http://www.w3.org/2000/svg" width="866" height="845" fill="none" viewBox="0 0 866 845">
  <path stroke="#186717" stroke-linecap="round" stroke-width="3" d="M-466.979 36.423C-425.625 27.3-385.415 26-343.236 26c64.588 0 129.451.132 192.116 18.53C-94.192 61.245-35.787 100.299 2.35 147.608c31.962 39.646 59.613 86.887 75.064 136.276C89.992 324.09 88.19 368.031 88.19 409.736c0 78.676-15.306 166.47 32.7 233.176 27.632 38.394 65.014 48.666 107.392 62.541 40.647 13.308 75.44 15.442 117.797 15.442 64.125 0 124.344-1.218 186.357 18.723 70.45 22.655 148.893 60.739 188.4 128.17C778.927 966.935 799.36 1078.6 844.021 1183"/>
  <path stroke="#186717" stroke-linecap="round" stroke-width="3" d="M-446.979 12.423C-405.625 3.3-365.415 2-323.236 2c64.588 0 129.451.132 192.116 18.53C-74.192 37.245-15.787 76.299 22.35 123.608c31.962 39.646 59.613 86.887 75.064 136.276 12.578 40.207 10.776 84.148 10.776 125.853 0 78.676-15.306 166.47 32.7 233.176 27.632 38.394 65.014 48.666 107.392 62.541 40.647 13.308 75.44 15.442 117.797 15.442 64.125 0 124.344-1.218 186.357 18.723 70.45 22.655 148.893 60.739 188.4 128.17C798.927 942.935 819.36 1054.6 864.021 1159"/>
  <path stroke="#186717" stroke-linecap="round" stroke-width="3" d="M-500.979 63.423C-459.625 54.3-419.415 53-377.236 53c64.588 0 129.451.132 192.116 18.53 56.928 16.714 115.333 55.768 153.47 103.077 31.962 39.646 59.613 86.887 75.064 136.276C55.992 351.09 54.19 395.031 54.19 436.736c0 78.676-15.306 166.47 32.7 233.176 27.632 38.394 65.014 48.666 107.392 62.541 40.647 13.308 75.44 15.442 117.797 15.442 64.125 0 124.344-1.218 186.357 18.723 70.45 22.655 148.893 60.739 188.4 128.17C744.927 993.935 765.36 1105.6 810.021 1210"/>
</svg>
