<svg xmlns="http://www.w3.org/2000/svg" width="779" height="1064" fill="none" viewBox="0 0 779 1064">
  <path stroke="#186717" stroke-linecap="round" stroke-width="3" d="M57.022-131.577C98.375-140.701 138.584-142 180.764-142c64.588 0 129.451.132 192.116 18.531 56.928 16.713 115.333 55.767 153.471 103.076 31.961 39.646 59.612 86.887 75.062 136.276 12.579 40.207 10.777 84.148 10.777 125.853 0 78.676-15.306 166.47 32.7 233.176 27.632 38.394 65.014 48.666 107.392 62.541 40.647 13.308 75.44 15.442 117.797 15.442 64.125 0 124.344-1.218 186.361 18.723 70.45 22.655 148.89 60.739 188.4 128.17 58.09 99.147 78.52 210.814 123.18 315.212"/>
  <path stroke="#186717" stroke-linecap="round" stroke-width="3" d="M30.021-107.577C71.376-116.701 111.585-118 153.764-118c64.588 0 129.451.132 192.116 18.53C402.808-82.755 461.213-43.701 499.351 3.608c31.961 39.646 59.612 86.887 75.062 136.276 12.579 40.207 10.777 84.148 10.777 125.853 0 78.676-15.306 166.47 32.7 233.176 27.632 38.394 65.014 48.666 107.392 62.541 40.647 13.308 75.44 15.442 117.797 15.442 64.125 0 124.344-1.218 186.361 18.723 70.45 22.655 148.89 60.739 188.4 128.17 58.09 99.147 78.52 210.814 123.18 315.212"/>
  <path stroke="#186717" stroke-linecap="round" stroke-width="3" d="M2.021-84.577C43.375-93.7 83.585-95 125.764-95c64.588 0 129.451.132 192.116 18.53 56.928 16.714 115.333 55.768 153.471 103.077 31.961 39.646 59.612 86.887 75.062 136.276 12.579 40.207 10.777 84.148 10.777 125.853 0 78.676-15.306 166.47 32.7 233.176 27.632 38.394 65.014 48.666 107.392 62.541 40.647 13.308 75.44 15.442 117.797 15.442 64.125 0 124.344-1.218 186.361 18.723 70.45 22.655 148.89 60.739 188.4 128.17 58.09 99.147 78.52 210.814 123.18 315.212"/>
</svg>
